<mxfile host="app.diagrams.net" modified="2023-12-06T19:12:48.777Z" agent="Mozilla/5.0 (Windows NT 10.0; Win64; x64) AppleWebKit/537.36 (KHTML, like Gecko) Chrome/119.0.0.0 Safari/537.36" etag="VR92YUTPLHXmKy6hdR6T" version="22.1.5" type="device">
  <diagram name="Page-1" id="YY1l4YRsIYDOIu4oy-kg">
    <mxGraphModel dx="1434" dy="780" grid="0" gridSize="10" guides="1" tooltips="1" connect="1" arrows="1" fold="1" page="1" pageScale="1" pageWidth="850" pageHeight="1100" background="none" math="0" shadow="0">
      <root>
        <mxCell id="0" />
        <mxCell id="1" parent="0" />
        <mxCell id="t3dhQ-1YvMz3jIGr21Fk-1" value="&lt;b&gt;Activity&lt;/b&gt;" style="swimlane;fontStyle=0;childLayout=stackLayout;horizontal=1;startSize=50;horizontalStack=0;resizeParent=1;resizeParentMax=0;resizeLast=0;collapsible=1;marginBottom=0;whiteSpace=wrap;html=1;" parent="1" vertex="1">
          <mxGeometry x="80" y="40" width="230" height="370" as="geometry">
            <mxRectangle x="300" y="170" width="60" height="30" as="alternateBounds" />
          </mxGeometry>
        </mxCell>
        <mxCell id="t3dhQ-1YvMz3jIGr21Fk-2" value="A : Develop Applicant filter system" style="text;strokeColor=default;fillColor=none;align=left;verticalAlign=middle;spacingLeft=4;spacingRight=4;overflow=hidden;points=[[0,0.5],[1,0.5]];portConstraint=eastwest;rotatable=0;whiteSpace=wrap;html=1;" parent="t3dhQ-1YvMz3jIGr21Fk-1" vertex="1">
          <mxGeometry y="50" width="230" height="40" as="geometry" />
        </mxCell>
        <mxCell id="t3dhQ-1YvMz3jIGr21Fk-3" value="B : Develop Login Page" style="text;strokeColor=default;fillColor=none;align=left;verticalAlign=middle;spacingLeft=4;spacingRight=4;overflow=hidden;points=[[0,0.5],[1,0.5]];portConstraint=eastwest;rotatable=0;whiteSpace=wrap;html=1;" parent="t3dhQ-1YvMz3jIGr21Fk-1" vertex="1">
          <mxGeometry y="90" width="230" height="40" as="geometry" />
        </mxCell>
        <mxCell id="t3dhQ-1YvMz3jIGr21Fk-4" value="C : Develop Direct Messaging" style="text;strokeColor=default;fillColor=none;align=left;verticalAlign=middle;spacingLeft=4;spacingRight=4;overflow=hidden;points=[[0,0.5],[1,0.5]];portConstraint=eastwest;rotatable=0;whiteSpace=wrap;html=1;" parent="t3dhQ-1YvMz3jIGr21Fk-1" vertex="1">
          <mxGeometry y="130" width="230" height="40" as="geometry" />
        </mxCell>
        <mxCell id="t3dhQ-1YvMz3jIGr21Fk-5" value="D : Develop Notification system" style="text;strokeColor=default;fillColor=none;align=left;verticalAlign=middle;spacingLeft=4;spacingRight=4;overflow=hidden;points=[[0,0.5],[1,0.5]];portConstraint=eastwest;rotatable=0;whiteSpace=wrap;html=1;" parent="t3dhQ-1YvMz3jIGr21Fk-1" vertex="1">
          <mxGeometry y="170" width="230" height="40" as="geometry" />
        </mxCell>
        <mxCell id="t3dhQ-1YvMz3jIGr21Fk-6" value="E : Develop Profile Page" style="text;strokeColor=default;fillColor=none;align=left;verticalAlign=middle;spacingLeft=4;spacingRight=4;overflow=hidden;points=[[0,0.5],[1,0.5]];portConstraint=eastwest;rotatable=0;whiteSpace=wrap;html=1;" parent="t3dhQ-1YvMz3jIGr21Fk-1" vertex="1">
          <mxGeometry y="210" width="230" height="40" as="geometry" />
        </mxCell>
        <mxCell id="t3dhQ-1YvMz3jIGr21Fk-7" value="F : Develop Feedback System" style="text;strokeColor=default;fillColor=none;align=left;verticalAlign=middle;spacingLeft=4;spacingRight=4;overflow=hidden;points=[[0,0.5],[1,0.5]];portConstraint=eastwest;rotatable=0;whiteSpace=wrap;html=1;" parent="t3dhQ-1YvMz3jIGr21Fk-1" vertex="1">
          <mxGeometry y="250" width="230" height="40" as="geometry" />
        </mxCell>
        <mxCell id="t3dhQ-1YvMz3jIGr21Fk-8" value="G : Develop Database" style="text;strokeColor=default;fillColor=none;align=left;verticalAlign=middle;spacingLeft=4;spacingRight=4;overflow=hidden;points=[[0,0.5],[1,0.5]];portConstraint=eastwest;rotatable=0;whiteSpace=wrap;html=1;" parent="t3dhQ-1YvMz3jIGr21Fk-1" vertex="1">
          <mxGeometry y="290" width="230" height="40" as="geometry" />
        </mxCell>
        <mxCell id="t3dhQ-1YvMz3jIGr21Fk-9" value="H : Develop Schedule System" style="text;strokeColor=default;fillColor=none;align=left;verticalAlign=middle;spacingLeft=4;spacingRight=4;overflow=hidden;points=[[0,0.5],[1,0.5]];portConstraint=eastwest;rotatable=0;whiteSpace=wrap;html=1;" parent="t3dhQ-1YvMz3jIGr21Fk-1" vertex="1">
          <mxGeometry y="330" width="230" height="40" as="geometry" />
        </mxCell>
        <mxCell id="t3dhQ-1YvMz3jIGr21Fk-10" value="&lt;b&gt;Predecessor&lt;/b&gt;" style="swimlane;fontStyle=0;childLayout=stackLayout;horizontal=1;startSize=50;horizontalStack=0;resizeParent=1;resizeParentMax=0;resizeLast=0;collapsible=1;marginBottom=0;whiteSpace=wrap;html=1;" parent="1" vertex="1">
          <mxGeometry x="310" y="40" width="120" height="370" as="geometry">
            <mxRectangle x="300" y="170" width="60" height="30" as="alternateBounds" />
          </mxGeometry>
        </mxCell>
        <mxCell id="t3dhQ-1YvMz3jIGr21Fk-11" value="E" style="text;strokeColor=default;fillColor=none;align=center;verticalAlign=middle;spacingLeft=4;spacingRight=4;overflow=hidden;points=[[0,0.5],[1,0.5]];portConstraint=eastwest;rotatable=0;whiteSpace=wrap;html=1;" parent="t3dhQ-1YvMz3jIGr21Fk-10" vertex="1">
          <mxGeometry y="50" width="120" height="40" as="geometry" />
        </mxCell>
        <mxCell id="t3dhQ-1YvMz3jIGr21Fk-12" value="G" style="text;strokeColor=default;fillColor=none;align=center;verticalAlign=middle;spacingLeft=4;spacingRight=4;overflow=hidden;points=[[0,0.5],[1,0.5]];portConstraint=eastwest;rotatable=0;whiteSpace=wrap;html=1;" parent="t3dhQ-1YvMz3jIGr21Fk-10" vertex="1">
          <mxGeometry y="90" width="120" height="40" as="geometry" />
        </mxCell>
        <mxCell id="t3dhQ-1YvMz3jIGr21Fk-13" value="E" style="text;strokeColor=default;fillColor=none;align=center;verticalAlign=middle;spacingLeft=4;spacingRight=4;overflow=hidden;points=[[0,0.5],[1,0.5]];portConstraint=eastwest;rotatable=0;whiteSpace=wrap;html=1;" parent="t3dhQ-1YvMz3jIGr21Fk-10" vertex="1">
          <mxGeometry y="130" width="120" height="40" as="geometry" />
        </mxCell>
        <mxCell id="t3dhQ-1YvMz3jIGr21Fk-14" value="E" style="text;strokeColor=default;fillColor=none;align=center;verticalAlign=middle;spacingLeft=4;spacingRight=4;overflow=hidden;points=[[0,0.5],[1,0.5]];portConstraint=eastwest;rotatable=0;whiteSpace=wrap;html=1;" parent="t3dhQ-1YvMz3jIGr21Fk-10" vertex="1">
          <mxGeometry y="170" width="120" height="40" as="geometry" />
        </mxCell>
        <mxCell id="t3dhQ-1YvMz3jIGr21Fk-15" value="B" style="text;strokeColor=default;fillColor=none;align=center;verticalAlign=middle;spacingLeft=4;spacingRight=4;overflow=hidden;points=[[0,0.5],[1,0.5]];portConstraint=eastwest;rotatable=0;whiteSpace=wrap;html=1;" parent="t3dhQ-1YvMz3jIGr21Fk-10" vertex="1">
          <mxGeometry y="210" width="120" height="40" as="geometry" />
        </mxCell>
        <mxCell id="t3dhQ-1YvMz3jIGr21Fk-16" value="C" style="text;strokeColor=default;fillColor=none;align=center;verticalAlign=middle;spacingLeft=4;spacingRight=4;overflow=hidden;points=[[0,0.5],[1,0.5]];portConstraint=eastwest;rotatable=0;whiteSpace=wrap;html=1;" parent="t3dhQ-1YvMz3jIGr21Fk-10" vertex="1">
          <mxGeometry y="250" width="120" height="40" as="geometry" />
        </mxCell>
        <mxCell id="t3dhQ-1YvMz3jIGr21Fk-17" value="" style="text;strokeColor=default;fillColor=none;align=center;verticalAlign=middle;spacingLeft=4;spacingRight=4;overflow=hidden;points=[[0,0.5],[1,0.5]];portConstraint=eastwest;rotatable=0;whiteSpace=wrap;html=1;" parent="t3dhQ-1YvMz3jIGr21Fk-10" vertex="1">
          <mxGeometry y="290" width="120" height="40" as="geometry" />
        </mxCell>
        <mxCell id="t3dhQ-1YvMz3jIGr21Fk-18" value="D" style="text;strokeColor=default;fillColor=none;align=center;verticalAlign=middle;spacingLeft=4;spacingRight=4;overflow=hidden;points=[[0,0.5],[1,0.5]];portConstraint=eastwest;rotatable=0;whiteSpace=wrap;html=1;" parent="t3dhQ-1YvMz3jIGr21Fk-10" vertex="1">
          <mxGeometry y="330" width="120" height="40" as="geometry" />
        </mxCell>
        <mxCell id="t3dhQ-1YvMz3jIGr21Fk-19" value="&lt;b&gt;Time Estimates&lt;/b&gt;" style="swimlane;fontStyle=0;childLayout=stackLayout;horizontal=1;startSize=30;horizontalStack=0;resizeParent=1;resizeParentMax=0;resizeLast=0;collapsible=1;marginBottom=0;whiteSpace=wrap;html=1;" parent="1" vertex="1">
          <mxGeometry x="430" y="40" width="230" height="370" as="geometry">
            <mxRectangle x="300" y="170" width="60" height="30" as="alternateBounds" />
          </mxGeometry>
        </mxCell>
        <mxCell id="t3dhQ-1YvMz3jIGr21Fk-20" value="" style="shape=table;startSize=0;container=1;collapsible=0;childLayout=tableLayout;fontSize=16;spacing=2;" parent="t3dhQ-1YvMz3jIGr21Fk-19" vertex="1">
          <mxGeometry y="30" width="230" height="20" as="geometry" />
        </mxCell>
        <mxCell id="t3dhQ-1YvMz3jIGr21Fk-21" value="" style="shape=tableRow;horizontal=0;startSize=0;swimlaneHead=0;swimlaneBody=0;strokeColor=inherit;top=0;left=0;bottom=0;right=0;collapsible=0;dropTarget=0;fillColor=none;points=[[0,0.5],[1,0.5]];portConstraint=eastwest;fontSize=16;" parent="t3dhQ-1YvMz3jIGr21Fk-20" vertex="1">
          <mxGeometry width="230" height="20" as="geometry" />
        </mxCell>
        <mxCell id="t3dhQ-1YvMz3jIGr21Fk-22" value="&lt;font style=&quot;font-size: 12px;&quot;&gt;&lt;b&gt;Optimistic&lt;/b&gt;&lt;/font&gt;" style="shape=partialRectangle;html=1;whiteSpace=wrap;connectable=0;strokeColor=inherit;overflow=hidden;fillColor=none;top=0;left=0;bottom=0;right=0;pointerEvents=1;fontSize=16;spacing=-1;" parent="t3dhQ-1YvMz3jIGr21Fk-21" vertex="1">
          <mxGeometry width="77" height="20" as="geometry">
            <mxRectangle width="77" height="20" as="alternateBounds" />
          </mxGeometry>
        </mxCell>
        <mxCell id="t3dhQ-1YvMz3jIGr21Fk-23" value="&lt;b style=&quot;border-color: var(--border-color); font-size: 12px;&quot;&gt;Most Likely&lt;/b&gt;" style="shape=partialRectangle;html=1;whiteSpace=wrap;connectable=0;strokeColor=inherit;overflow=hidden;fillColor=none;top=0;left=0;bottom=0;right=0;pointerEvents=1;fontSize=16;spacing=0;" parent="t3dhQ-1YvMz3jIGr21Fk-21" vertex="1">
          <mxGeometry x="77" width="76" height="20" as="geometry">
            <mxRectangle width="76" height="20" as="alternateBounds" />
          </mxGeometry>
        </mxCell>
        <mxCell id="t3dhQ-1YvMz3jIGr21Fk-24" value="&lt;b style=&quot;border-color: var(--border-color); font-size: 12px;&quot;&gt;Pessimistic&lt;/b&gt;" style="shape=partialRectangle;html=1;whiteSpace=wrap;connectable=0;strokeColor=inherit;overflow=hidden;fillColor=none;top=0;left=0;bottom=0;right=0;pointerEvents=1;fontSize=16;spacing=0;" parent="t3dhQ-1YvMz3jIGr21Fk-21" vertex="1">
          <mxGeometry x="153" width="77" height="20" as="geometry">
            <mxRectangle width="77" height="20" as="alternateBounds" />
          </mxGeometry>
        </mxCell>
        <mxCell id="t3dhQ-1YvMz3jIGr21Fk-25" value="" style="shape=table;startSize=0;container=1;collapsible=0;childLayout=tableLayout;fontSize=16;spacing=2;" parent="t3dhQ-1YvMz3jIGr21Fk-19" vertex="1">
          <mxGeometry y="50" width="230" height="320" as="geometry" />
        </mxCell>
        <mxCell id="t3dhQ-1YvMz3jIGr21Fk-26" value="" style="shape=tableRow;horizontal=0;startSize=0;swimlaneHead=0;swimlaneBody=0;strokeColor=inherit;top=0;left=0;bottom=0;right=0;collapsible=0;dropTarget=0;fillColor=none;points=[[0,0.5],[1,0.5]];portConstraint=eastwest;fontSize=16;spacing=0;" parent="t3dhQ-1YvMz3jIGr21Fk-25" vertex="1">
          <mxGeometry width="230" height="40" as="geometry" />
        </mxCell>
        <mxCell id="t3dhQ-1YvMz3jIGr21Fk-27" value="3" style="shape=partialRectangle;html=1;whiteSpace=wrap;connectable=0;strokeColor=inherit;overflow=hidden;fillColor=none;top=0;left=0;bottom=0;right=0;pointerEvents=1;fontSize=16;spacing=-1;spacingBottom=3;" parent="t3dhQ-1YvMz3jIGr21Fk-26" vertex="1">
          <mxGeometry width="77" height="40" as="geometry">
            <mxRectangle width="77" height="40" as="alternateBounds" />
          </mxGeometry>
        </mxCell>
        <mxCell id="t3dhQ-1YvMz3jIGr21Fk-28" value="5" style="shape=partialRectangle;html=1;whiteSpace=wrap;connectable=0;strokeColor=inherit;overflow=hidden;fillColor=none;top=0;left=0;bottom=0;right=0;pointerEvents=1;fontSize=16;spacing=0;spacingBottom=3;" parent="t3dhQ-1YvMz3jIGr21Fk-26" vertex="1">
          <mxGeometry x="77" width="76" height="40" as="geometry">
            <mxRectangle width="76" height="40" as="alternateBounds" />
          </mxGeometry>
        </mxCell>
        <mxCell id="t3dhQ-1YvMz3jIGr21Fk-29" value="6" style="shape=partialRectangle;html=1;whiteSpace=wrap;connectable=0;strokeColor=inherit;overflow=hidden;fillColor=none;top=0;left=0;bottom=0;right=0;pointerEvents=1;fontSize=16;spacing=0;verticalAlign=middle;spacingTop=0;spacingBottom=3;" parent="t3dhQ-1YvMz3jIGr21Fk-26" vertex="1">
          <mxGeometry x="153" width="77" height="40" as="geometry">
            <mxRectangle width="77" height="40" as="alternateBounds" />
          </mxGeometry>
        </mxCell>
        <mxCell id="t3dhQ-1YvMz3jIGr21Fk-30" value="" style="shape=tableRow;horizontal=0;startSize=0;swimlaneHead=0;swimlaneBody=0;strokeColor=inherit;top=0;left=0;bottom=0;right=0;collapsible=0;dropTarget=0;fillColor=none;points=[[0,0.5],[1,0.5]];portConstraint=eastwest;fontSize=16;spacing=0;" parent="t3dhQ-1YvMz3jIGr21Fk-25" vertex="1">
          <mxGeometry y="40" width="230" height="40" as="geometry" />
        </mxCell>
        <mxCell id="t3dhQ-1YvMz3jIGr21Fk-31" value="2" style="shape=partialRectangle;html=1;whiteSpace=wrap;connectable=0;strokeColor=inherit;overflow=hidden;fillColor=none;top=0;left=0;bottom=0;right=0;pointerEvents=1;fontSize=16;spacing=-1;spacingBottom=3;" parent="t3dhQ-1YvMz3jIGr21Fk-30" vertex="1">
          <mxGeometry width="77" height="40" as="geometry">
            <mxRectangle width="77" height="40" as="alternateBounds" />
          </mxGeometry>
        </mxCell>
        <mxCell id="t3dhQ-1YvMz3jIGr21Fk-32" value="3" style="shape=partialRectangle;html=1;whiteSpace=wrap;connectable=0;strokeColor=inherit;overflow=hidden;fillColor=none;top=0;left=0;bottom=0;right=0;pointerEvents=1;fontSize=16;spacing=0;spacingBottom=3;" parent="t3dhQ-1YvMz3jIGr21Fk-30" vertex="1">
          <mxGeometry x="77" width="76" height="40" as="geometry">
            <mxRectangle width="76" height="40" as="alternateBounds" />
          </mxGeometry>
        </mxCell>
        <mxCell id="t3dhQ-1YvMz3jIGr21Fk-33" value="4" style="shape=partialRectangle;html=1;whiteSpace=wrap;connectable=0;strokeColor=inherit;overflow=hidden;fillColor=none;top=0;left=0;bottom=0;right=0;pointerEvents=1;fontSize=16;spacing=0;verticalAlign=middle;spacingTop=0;spacingBottom=3;" parent="t3dhQ-1YvMz3jIGr21Fk-30" vertex="1">
          <mxGeometry x="153" width="77" height="40" as="geometry">
            <mxRectangle width="77" height="40" as="alternateBounds" />
          </mxGeometry>
        </mxCell>
        <mxCell id="t3dhQ-1YvMz3jIGr21Fk-34" value="" style="shape=tableRow;horizontal=0;startSize=0;swimlaneHead=0;swimlaneBody=0;strokeColor=inherit;top=0;left=0;bottom=0;right=0;collapsible=0;dropTarget=0;fillColor=none;points=[[0,0.5],[1,0.5]];portConstraint=eastwest;fontSize=16;spacing=0;" parent="t3dhQ-1YvMz3jIGr21Fk-25" vertex="1">
          <mxGeometry y="80" width="230" height="40" as="geometry" />
        </mxCell>
        <mxCell id="t3dhQ-1YvMz3jIGr21Fk-35" value="2" style="shape=partialRectangle;html=1;whiteSpace=wrap;connectable=0;strokeColor=inherit;overflow=hidden;fillColor=none;top=0;left=0;bottom=0;right=0;pointerEvents=1;fontSize=16;spacing=-1;spacingBottom=3;" parent="t3dhQ-1YvMz3jIGr21Fk-34" vertex="1">
          <mxGeometry width="77" height="40" as="geometry">
            <mxRectangle width="77" height="40" as="alternateBounds" />
          </mxGeometry>
        </mxCell>
        <mxCell id="t3dhQ-1YvMz3jIGr21Fk-36" value="4" style="shape=partialRectangle;html=1;whiteSpace=wrap;connectable=0;strokeColor=inherit;overflow=hidden;fillColor=none;top=0;left=0;bottom=0;right=0;pointerEvents=1;fontSize=16;spacing=0;spacingBottom=3;" parent="t3dhQ-1YvMz3jIGr21Fk-34" vertex="1">
          <mxGeometry x="77" width="76" height="40" as="geometry">
            <mxRectangle width="76" height="40" as="alternateBounds" />
          </mxGeometry>
        </mxCell>
        <mxCell id="t3dhQ-1YvMz3jIGr21Fk-37" value="7" style="shape=partialRectangle;html=1;whiteSpace=wrap;connectable=0;strokeColor=inherit;overflow=hidden;fillColor=none;top=0;left=0;bottom=0;right=0;pointerEvents=1;fontSize=16;spacing=0;verticalAlign=middle;spacingTop=0;spacingBottom=3;" parent="t3dhQ-1YvMz3jIGr21Fk-34" vertex="1">
          <mxGeometry x="153" width="77" height="40" as="geometry">
            <mxRectangle width="77" height="40" as="alternateBounds" />
          </mxGeometry>
        </mxCell>
        <mxCell id="t3dhQ-1YvMz3jIGr21Fk-38" value="" style="shape=tableRow;horizontal=0;startSize=0;swimlaneHead=0;swimlaneBody=0;strokeColor=inherit;top=0;left=0;bottom=0;right=0;collapsible=0;dropTarget=0;fillColor=none;points=[[0,0.5],[1,0.5]];portConstraint=eastwest;fontSize=16;spacing=0;" parent="t3dhQ-1YvMz3jIGr21Fk-25" vertex="1">
          <mxGeometry y="120" width="230" height="40" as="geometry" />
        </mxCell>
        <mxCell id="t3dhQ-1YvMz3jIGr21Fk-39" value="3" style="shape=partialRectangle;html=1;whiteSpace=wrap;connectable=0;strokeColor=inherit;overflow=hidden;fillColor=none;top=0;left=0;bottom=0;right=0;pointerEvents=1;fontSize=16;spacing=-1;spacingBottom=3;" parent="t3dhQ-1YvMz3jIGr21Fk-38" vertex="1">
          <mxGeometry width="77" height="40" as="geometry">
            <mxRectangle width="77" height="40" as="alternateBounds" />
          </mxGeometry>
        </mxCell>
        <mxCell id="t3dhQ-1YvMz3jIGr21Fk-40" value="4" style="shape=partialRectangle;html=1;whiteSpace=wrap;connectable=0;strokeColor=inherit;overflow=hidden;fillColor=none;top=0;left=0;bottom=0;right=0;pointerEvents=1;fontSize=16;spacing=0;spacingBottom=3;" parent="t3dhQ-1YvMz3jIGr21Fk-38" vertex="1">
          <mxGeometry x="77" width="76" height="40" as="geometry">
            <mxRectangle width="76" height="40" as="alternateBounds" />
          </mxGeometry>
        </mxCell>
        <mxCell id="t3dhQ-1YvMz3jIGr21Fk-41" value="5" style="shape=partialRectangle;html=1;whiteSpace=wrap;connectable=0;strokeColor=inherit;overflow=hidden;fillColor=none;top=0;left=0;bottom=0;right=0;pointerEvents=1;fontSize=16;spacing=0;verticalAlign=middle;spacingTop=0;spacingBottom=3;" parent="t3dhQ-1YvMz3jIGr21Fk-38" vertex="1">
          <mxGeometry x="153" width="77" height="40" as="geometry">
            <mxRectangle width="77" height="40" as="alternateBounds" />
          </mxGeometry>
        </mxCell>
        <mxCell id="t3dhQ-1YvMz3jIGr21Fk-42" value="" style="shape=tableRow;horizontal=0;startSize=0;swimlaneHead=0;swimlaneBody=0;strokeColor=inherit;top=0;left=0;bottom=0;right=0;collapsible=0;dropTarget=0;fillColor=none;points=[[0,0.5],[1,0.5]];portConstraint=eastwest;fontSize=16;spacing=0;" parent="t3dhQ-1YvMz3jIGr21Fk-25" vertex="1">
          <mxGeometry y="160" width="230" height="40" as="geometry" />
        </mxCell>
        <mxCell id="t3dhQ-1YvMz3jIGr21Fk-43" value="2" style="shape=partialRectangle;html=1;whiteSpace=wrap;connectable=0;strokeColor=inherit;overflow=hidden;fillColor=none;top=0;left=0;bottom=0;right=0;pointerEvents=1;fontSize=16;spacing=-1;spacingBottom=3;" parent="t3dhQ-1YvMz3jIGr21Fk-42" vertex="1">
          <mxGeometry width="77" height="40" as="geometry">
            <mxRectangle width="77" height="40" as="alternateBounds" />
          </mxGeometry>
        </mxCell>
        <mxCell id="t3dhQ-1YvMz3jIGr21Fk-44" value="3" style="shape=partialRectangle;html=1;whiteSpace=wrap;connectable=0;strokeColor=inherit;overflow=hidden;fillColor=none;top=0;left=0;bottom=0;right=0;pointerEvents=1;fontSize=16;spacing=0;spacingBottom=3;" parent="t3dhQ-1YvMz3jIGr21Fk-42" vertex="1">
          <mxGeometry x="77" width="76" height="40" as="geometry">
            <mxRectangle width="76" height="40" as="alternateBounds" />
          </mxGeometry>
        </mxCell>
        <mxCell id="t3dhQ-1YvMz3jIGr21Fk-45" value="4" style="shape=partialRectangle;html=1;whiteSpace=wrap;connectable=0;strokeColor=inherit;overflow=hidden;fillColor=none;top=0;left=0;bottom=0;right=0;pointerEvents=1;fontSize=16;spacing=0;verticalAlign=middle;spacingTop=0;spacingBottom=3;" parent="t3dhQ-1YvMz3jIGr21Fk-42" vertex="1">
          <mxGeometry x="153" width="77" height="40" as="geometry">
            <mxRectangle width="77" height="40" as="alternateBounds" />
          </mxGeometry>
        </mxCell>
        <mxCell id="t3dhQ-1YvMz3jIGr21Fk-46" value="" style="shape=tableRow;horizontal=0;startSize=0;swimlaneHead=0;swimlaneBody=0;strokeColor=inherit;top=0;left=0;bottom=0;right=0;collapsible=0;dropTarget=0;fillColor=none;points=[[0,0.5],[1,0.5]];portConstraint=eastwest;fontSize=16;spacing=0;" parent="t3dhQ-1YvMz3jIGr21Fk-25" vertex="1">
          <mxGeometry y="200" width="230" height="40" as="geometry" />
        </mxCell>
        <mxCell id="t3dhQ-1YvMz3jIGr21Fk-47" value="3" style="shape=partialRectangle;html=1;whiteSpace=wrap;connectable=0;strokeColor=inherit;overflow=hidden;fillColor=none;top=0;left=0;bottom=0;right=0;pointerEvents=1;fontSize=16;spacing=-1;spacingBottom=3;" parent="t3dhQ-1YvMz3jIGr21Fk-46" vertex="1">
          <mxGeometry width="77" height="40" as="geometry">
            <mxRectangle width="77" height="40" as="alternateBounds" />
          </mxGeometry>
        </mxCell>
        <mxCell id="t3dhQ-1YvMz3jIGr21Fk-48" value="4" style="shape=partialRectangle;html=1;whiteSpace=wrap;connectable=0;strokeColor=inherit;overflow=hidden;fillColor=none;top=0;left=0;bottom=0;right=0;pointerEvents=1;fontSize=16;spacing=0;spacingBottom=3;" parent="t3dhQ-1YvMz3jIGr21Fk-46" vertex="1">
          <mxGeometry x="77" width="76" height="40" as="geometry">
            <mxRectangle width="76" height="40" as="alternateBounds" />
          </mxGeometry>
        </mxCell>
        <mxCell id="t3dhQ-1YvMz3jIGr21Fk-49" value="5" style="shape=partialRectangle;html=1;whiteSpace=wrap;connectable=0;strokeColor=inherit;overflow=hidden;fillColor=none;top=0;left=0;bottom=0;right=0;pointerEvents=1;fontSize=16;spacing=0;verticalAlign=middle;spacingTop=0;spacingBottom=3;" parent="t3dhQ-1YvMz3jIGr21Fk-46" vertex="1">
          <mxGeometry x="153" width="77" height="40" as="geometry">
            <mxRectangle width="77" height="40" as="alternateBounds" />
          </mxGeometry>
        </mxCell>
        <mxCell id="t3dhQ-1YvMz3jIGr21Fk-50" value="" style="shape=tableRow;horizontal=0;startSize=0;swimlaneHead=0;swimlaneBody=0;strokeColor=inherit;top=0;left=0;bottom=0;right=0;collapsible=0;dropTarget=0;fillColor=none;points=[[0,0.5],[1,0.5]];portConstraint=eastwest;fontSize=16;spacing=0;" parent="t3dhQ-1YvMz3jIGr21Fk-25" vertex="1">
          <mxGeometry y="240" width="230" height="40" as="geometry" />
        </mxCell>
        <mxCell id="t3dhQ-1YvMz3jIGr21Fk-51" value="3" style="shape=partialRectangle;html=1;whiteSpace=wrap;connectable=0;strokeColor=inherit;overflow=hidden;fillColor=none;top=0;left=0;bottom=0;right=0;pointerEvents=1;fontSize=16;spacing=-1;spacingBottom=3;" parent="t3dhQ-1YvMz3jIGr21Fk-50" vertex="1">
          <mxGeometry width="77" height="40" as="geometry">
            <mxRectangle width="77" height="40" as="alternateBounds" />
          </mxGeometry>
        </mxCell>
        <mxCell id="t3dhQ-1YvMz3jIGr21Fk-52" value="5" style="shape=partialRectangle;html=1;whiteSpace=wrap;connectable=0;strokeColor=inherit;overflow=hidden;fillColor=none;top=0;left=0;bottom=0;right=0;pointerEvents=1;fontSize=16;spacing=0;spacingBottom=3;" parent="t3dhQ-1YvMz3jIGr21Fk-50" vertex="1">
          <mxGeometry x="77" width="76" height="40" as="geometry">
            <mxRectangle width="76" height="40" as="alternateBounds" />
          </mxGeometry>
        </mxCell>
        <mxCell id="t3dhQ-1YvMz3jIGr21Fk-53" value="10" style="shape=partialRectangle;html=1;whiteSpace=wrap;connectable=0;strokeColor=inherit;overflow=hidden;fillColor=none;top=0;left=0;bottom=0;right=0;pointerEvents=1;fontSize=16;spacing=0;verticalAlign=middle;spacingTop=0;spacingBottom=3;" parent="t3dhQ-1YvMz3jIGr21Fk-50" vertex="1">
          <mxGeometry x="153" width="77" height="40" as="geometry">
            <mxRectangle width="77" height="40" as="alternateBounds" />
          </mxGeometry>
        </mxCell>
        <mxCell id="t3dhQ-1YvMz3jIGr21Fk-54" value="" style="shape=tableRow;horizontal=0;startSize=0;swimlaneHead=0;swimlaneBody=0;strokeColor=inherit;top=0;left=0;bottom=0;right=0;collapsible=0;dropTarget=0;fillColor=none;points=[[0,0.5],[1,0.5]];portConstraint=eastwest;fontSize=16;spacing=0;" parent="t3dhQ-1YvMz3jIGr21Fk-25" vertex="1">
          <mxGeometry y="280" width="230" height="40" as="geometry" />
        </mxCell>
        <mxCell id="t3dhQ-1YvMz3jIGr21Fk-55" value="3" style="shape=partialRectangle;html=1;whiteSpace=wrap;connectable=0;strokeColor=inherit;overflow=hidden;fillColor=none;top=0;left=0;bottom=0;right=0;pointerEvents=1;fontSize=16;spacing=-1;spacingBottom=3;" parent="t3dhQ-1YvMz3jIGr21Fk-54" vertex="1">
          <mxGeometry width="77" height="40" as="geometry">
            <mxRectangle width="77" height="40" as="alternateBounds" />
          </mxGeometry>
        </mxCell>
        <mxCell id="t3dhQ-1YvMz3jIGr21Fk-56" value="5" style="shape=partialRectangle;html=1;whiteSpace=wrap;connectable=0;strokeColor=inherit;overflow=hidden;fillColor=none;top=0;left=0;bottom=0;right=0;pointerEvents=1;fontSize=16;spacing=0;spacingBottom=3;" parent="t3dhQ-1YvMz3jIGr21Fk-54" vertex="1">
          <mxGeometry x="77" width="76" height="40" as="geometry">
            <mxRectangle width="76" height="40" as="alternateBounds" />
          </mxGeometry>
        </mxCell>
        <mxCell id="t3dhQ-1YvMz3jIGr21Fk-57" value="7" style="shape=partialRectangle;html=1;whiteSpace=wrap;connectable=0;strokeColor=inherit;overflow=hidden;fillColor=none;top=0;left=0;bottom=0;right=0;pointerEvents=1;fontSize=16;spacing=0;verticalAlign=middle;spacingTop=0;spacingBottom=3;" parent="t3dhQ-1YvMz3jIGr21Fk-54" vertex="1">
          <mxGeometry x="153" width="77" height="40" as="geometry">
            <mxRectangle width="77" height="40" as="alternateBounds" />
          </mxGeometry>
        </mxCell>
        <mxCell id="t3dhQ-1YvMz3jIGr21Fk-58" value="&lt;b&gt;Expected LOC&lt;/b&gt;" style="swimlane;fontStyle=0;childLayout=stackLayout;horizontal=1;startSize=50;horizontalStack=0;resizeParent=1;resizeParentMax=0;resizeLast=0;collapsible=1;marginBottom=0;whiteSpace=wrap;html=1;" parent="1" vertex="1">
          <mxGeometry x="660" y="40" width="120" height="370" as="geometry">
            <mxRectangle x="300" y="170" width="60" height="30" as="alternateBounds" />
          </mxGeometry>
        </mxCell>
        <mxCell id="t3dhQ-1YvMz3jIGr21Fk-59" value="&lt;font style=&quot;font-size: 15px;&quot;&gt;100&lt;/font&gt;" style="text;strokeColor=default;fillColor=none;align=center;verticalAlign=middle;spacingLeft=4;spacingRight=4;overflow=hidden;points=[[0,0.5],[1,0.5]];portConstraint=eastwest;rotatable=0;whiteSpace=wrap;html=1;" parent="t3dhQ-1YvMz3jIGr21Fk-58" vertex="1">
          <mxGeometry y="50" width="120" height="40" as="geometry" />
        </mxCell>
        <mxCell id="t3dhQ-1YvMz3jIGr21Fk-60" value="&lt;font style=&quot;font-size: 15px;&quot;&gt;150&lt;/font&gt;" style="text;strokeColor=default;fillColor=none;align=center;verticalAlign=middle;spacingLeft=4;spacingRight=4;overflow=hidden;points=[[0,0.5],[1,0.5]];portConstraint=eastwest;rotatable=0;whiteSpace=wrap;html=1;" parent="t3dhQ-1YvMz3jIGr21Fk-58" vertex="1">
          <mxGeometry y="90" width="120" height="40" as="geometry" />
        </mxCell>
        <mxCell id="t3dhQ-1YvMz3jIGr21Fk-61" value="118" style="text;strokeColor=default;fillColor=none;align=center;verticalAlign=middle;spacingLeft=4;spacingRight=4;overflow=hidden;points=[[0,0.5],[1,0.5]];portConstraint=eastwest;rotatable=0;whiteSpace=wrap;html=1;fontSize=15;" parent="t3dhQ-1YvMz3jIGr21Fk-58" vertex="1">
          <mxGeometry y="130" width="120" height="40" as="geometry" />
        </mxCell>
        <mxCell id="t3dhQ-1YvMz3jIGr21Fk-62" value="75" style="text;strokeColor=default;fillColor=none;align=center;verticalAlign=middle;spacingLeft=4;spacingRight=4;overflow=hidden;points=[[0,0.5],[1,0.5]];portConstraint=eastwest;rotatable=0;whiteSpace=wrap;html=1;fontSize=15;" parent="t3dhQ-1YvMz3jIGr21Fk-58" vertex="1">
          <mxGeometry y="170" width="120" height="40" as="geometry" />
        </mxCell>
        <mxCell id="t3dhQ-1YvMz3jIGr21Fk-63" value="134" style="text;strokeColor=default;fillColor=none;align=center;verticalAlign=middle;spacingLeft=4;spacingRight=4;overflow=hidden;points=[[0,0.5],[1,0.5]];portConstraint=eastwest;rotatable=0;whiteSpace=wrap;html=1;fontSize=15;" parent="t3dhQ-1YvMz3jIGr21Fk-58" vertex="1">
          <mxGeometry y="210" width="120" height="40" as="geometry" />
        </mxCell>
        <mxCell id="t3dhQ-1YvMz3jIGr21Fk-64" value="50" style="text;strokeColor=default;fillColor=none;align=center;verticalAlign=middle;spacingLeft=4;spacingRight=4;overflow=hidden;points=[[0,0.5],[1,0.5]];portConstraint=eastwest;rotatable=0;whiteSpace=wrap;html=1;fontSize=15;" parent="t3dhQ-1YvMz3jIGr21Fk-58" vertex="1">
          <mxGeometry y="250" width="120" height="40" as="geometry" />
        </mxCell>
        <mxCell id="t3dhQ-1YvMz3jIGr21Fk-65" value="100" style="text;strokeColor=default;fillColor=none;align=center;verticalAlign=middle;spacingLeft=4;spacingRight=4;overflow=hidden;points=[[0,0.5],[1,0.5]];portConstraint=eastwest;rotatable=0;whiteSpace=wrap;html=1;fontSize=15;" parent="t3dhQ-1YvMz3jIGr21Fk-58" vertex="1">
          <mxGeometry y="290" width="120" height="40" as="geometry" />
        </mxCell>
        <mxCell id="t3dhQ-1YvMz3jIGr21Fk-66" value="&lt;font style=&quot;font-size: 15px;&quot;&gt;46&lt;/font&gt;" style="text;strokeColor=default;fillColor=none;align=center;verticalAlign=middle;spacingLeft=4;spacingRight=4;overflow=hidden;points=[[0,0.5],[1,0.5]];portConstraint=eastwest;rotatable=0;whiteSpace=wrap;html=1;" parent="t3dhQ-1YvMz3jIGr21Fk-58" vertex="1">
          <mxGeometry y="330" width="120" height="40" as="geometry" />
        </mxCell>
        <mxCell id="t3dhQ-1YvMz3jIGr21Fk-133" value="&lt;b&gt;Activity&lt;/b&gt;" style="swimlane;fontStyle=0;childLayout=stackLayout;horizontal=1;startSize=50;horizontalStack=0;resizeParent=1;resizeParentMax=0;resizeLast=0;collapsible=1;marginBottom=0;whiteSpace=wrap;html=1;" parent="1" vertex="1">
          <mxGeometry x="150" y="470" width="230" height="370" as="geometry">
            <mxRectangle x="300" y="170" width="60" height="30" as="alternateBounds" />
          </mxGeometry>
        </mxCell>
        <mxCell id="t3dhQ-1YvMz3jIGr21Fk-134" value="A" style="text;strokeColor=default;fillColor=none;align=center;verticalAlign=middle;spacingLeft=4;spacingRight=4;overflow=hidden;points=[[0,0.5],[1,0.5]];portConstraint=eastwest;rotatable=0;whiteSpace=wrap;html=1;" parent="t3dhQ-1YvMz3jIGr21Fk-133" vertex="1">
          <mxGeometry y="50" width="230" height="40" as="geometry" />
        </mxCell>
        <mxCell id="t3dhQ-1YvMz3jIGr21Fk-135" value="B" style="text;strokeColor=default;fillColor=none;align=center;verticalAlign=middle;spacingLeft=4;spacingRight=4;overflow=hidden;points=[[0,0.5],[1,0.5]];portConstraint=eastwest;rotatable=0;whiteSpace=wrap;html=1;" parent="t3dhQ-1YvMz3jIGr21Fk-133" vertex="1">
          <mxGeometry y="90" width="230" height="40" as="geometry" />
        </mxCell>
        <mxCell id="t3dhQ-1YvMz3jIGr21Fk-136" value="C" style="text;strokeColor=default;fillColor=none;align=center;verticalAlign=middle;spacingLeft=4;spacingRight=4;overflow=hidden;points=[[0,0.5],[1,0.5]];portConstraint=eastwest;rotatable=0;whiteSpace=wrap;html=1;" parent="t3dhQ-1YvMz3jIGr21Fk-133" vertex="1">
          <mxGeometry y="130" width="230" height="40" as="geometry" />
        </mxCell>
        <mxCell id="t3dhQ-1YvMz3jIGr21Fk-137" value="D" style="text;strokeColor=default;fillColor=none;align=center;verticalAlign=middle;spacingLeft=4;spacingRight=4;overflow=hidden;points=[[0,0.5],[1,0.5]];portConstraint=eastwest;rotatable=0;whiteSpace=wrap;html=1;" parent="t3dhQ-1YvMz3jIGr21Fk-133" vertex="1">
          <mxGeometry y="170" width="230" height="40" as="geometry" />
        </mxCell>
        <mxCell id="t3dhQ-1YvMz3jIGr21Fk-138" value="E" style="text;strokeColor=default;fillColor=none;align=center;verticalAlign=middle;spacingLeft=4;spacingRight=4;overflow=hidden;points=[[0,0.5],[1,0.5]];portConstraint=eastwest;rotatable=0;whiteSpace=wrap;html=1;" parent="t3dhQ-1YvMz3jIGr21Fk-133" vertex="1">
          <mxGeometry y="210" width="230" height="40" as="geometry" />
        </mxCell>
        <mxCell id="t3dhQ-1YvMz3jIGr21Fk-139" value="F" style="text;strokeColor=default;fillColor=none;align=center;verticalAlign=middle;spacingLeft=4;spacingRight=4;overflow=hidden;points=[[0,0.5],[1,0.5]];portConstraint=eastwest;rotatable=0;whiteSpace=wrap;html=1;" parent="t3dhQ-1YvMz3jIGr21Fk-133" vertex="1">
          <mxGeometry y="250" width="230" height="40" as="geometry" />
        </mxCell>
        <mxCell id="t3dhQ-1YvMz3jIGr21Fk-140" value="G" style="text;strokeColor=default;fillColor=none;align=center;verticalAlign=middle;spacingLeft=4;spacingRight=4;overflow=hidden;points=[[0,0.5],[1,0.5]];portConstraint=eastwest;rotatable=0;whiteSpace=wrap;html=1;" parent="t3dhQ-1YvMz3jIGr21Fk-133" vertex="1">
          <mxGeometry y="290" width="230" height="40" as="geometry" />
        </mxCell>
        <mxCell id="t3dhQ-1YvMz3jIGr21Fk-141" value="H" style="text;strokeColor=default;fillColor=none;align=center;verticalAlign=middle;spacingLeft=4;spacingRight=4;overflow=hidden;points=[[0,0.5],[1,0.5]];portConstraint=eastwest;rotatable=0;whiteSpace=wrap;html=1;" parent="t3dhQ-1YvMz3jIGr21Fk-133" vertex="1">
          <mxGeometry y="330" width="230" height="40" as="geometry" />
        </mxCell>
        <mxCell id="t3dhQ-1YvMz3jIGr21Fk-142" value="&lt;b&gt;E&lt;/b&gt;" style="swimlane;fontStyle=0;childLayout=stackLayout;horizontal=1;startSize=50;horizontalStack=0;resizeParent=1;resizeParentMax=0;resizeLast=0;collapsible=1;marginBottom=0;whiteSpace=wrap;html=1;" parent="1" vertex="1">
          <mxGeometry x="380" y="470" width="120" height="370" as="geometry">
            <mxRectangle x="300" y="170" width="60" height="30" as="alternateBounds" />
          </mxGeometry>
        </mxCell>
        <mxCell id="t3dhQ-1YvMz3jIGr21Fk-143" value="0.21" style="text;strokeColor=default;fillColor=none;align=center;verticalAlign=middle;spacingLeft=4;spacingRight=4;overflow=hidden;points=[[0,0.5],[1,0.5]];portConstraint=eastwest;rotatable=0;whiteSpace=wrap;html=1;fontSize=15;" parent="t3dhQ-1YvMz3jIGr21Fk-142" vertex="1">
          <mxGeometry y="50" width="120" height="40" as="geometry" />
        </mxCell>
        <mxCell id="t3dhQ-1YvMz3jIGr21Fk-144" value="0.33" style="text;strokeColor=default;fillColor=none;align=center;verticalAlign=middle;spacingLeft=4;spacingRight=4;overflow=hidden;points=[[0,0.5],[1,0.5]];portConstraint=eastwest;rotatable=0;whiteSpace=wrap;html=1;fontSize=15;" parent="t3dhQ-1YvMz3jIGr21Fk-142" vertex="1">
          <mxGeometry y="90" width="120" height="40" as="geometry" />
        </mxCell>
        <mxCell id="t3dhQ-1YvMz3jIGr21Fk-145" value="0.25" style="text;strokeColor=default;fillColor=none;align=center;verticalAlign=middle;spacingLeft=4;spacingRight=4;overflow=hidden;points=[[0,0.5],[1,0.5]];portConstraint=eastwest;rotatable=0;whiteSpace=wrap;html=1;fontSize=15;" parent="t3dhQ-1YvMz3jIGr21Fk-142" vertex="1">
          <mxGeometry y="130" width="120" height="40" as="geometry" />
        </mxCell>
        <mxCell id="t3dhQ-1YvMz3jIGr21Fk-146" value="0.16" style="text;strokeColor=default;fillColor=none;align=center;verticalAlign=middle;spacingLeft=4;spacingRight=4;overflow=hidden;points=[[0,0.5],[1,0.5]];portConstraint=eastwest;rotatable=0;whiteSpace=wrap;html=1;fontSize=15;" parent="t3dhQ-1YvMz3jIGr21Fk-142" vertex="1">
          <mxGeometry y="170" width="120" height="40" as="geometry" />
        </mxCell>
        <mxCell id="t3dhQ-1YvMz3jIGr21Fk-147" value="0.29" style="text;strokeColor=default;fillColor=none;align=center;verticalAlign=middle;spacingLeft=4;spacingRight=4;overflow=hidden;points=[[0,0.5],[1,0.5]];portConstraint=eastwest;rotatable=0;whiteSpace=wrap;html=1;fontSize=15;" parent="t3dhQ-1YvMz3jIGr21Fk-142" vertex="1">
          <mxGeometry y="210" width="120" height="40" as="geometry" />
        </mxCell>
        <mxCell id="t3dhQ-1YvMz3jIGr21Fk-148" value="0.10" style="text;strokeColor=default;fillColor=none;align=center;verticalAlign=middle;spacingLeft=4;spacingRight=4;overflow=hidden;points=[[0,0.5],[1,0.5]];portConstraint=eastwest;rotatable=0;whiteSpace=wrap;html=1;fontSize=15;" parent="t3dhQ-1YvMz3jIGr21Fk-142" vertex="1">
          <mxGeometry y="250" width="120" height="40" as="geometry" />
        </mxCell>
        <mxCell id="t3dhQ-1YvMz3jIGr21Fk-149" value="0.21" style="text;strokeColor=default;fillColor=none;align=center;verticalAlign=middle;spacingLeft=4;spacingRight=4;overflow=hidden;points=[[0,0.5],[1,0.5]];portConstraint=eastwest;rotatable=0;whiteSpace=wrap;html=1;fontSize=15;" parent="t3dhQ-1YvMz3jIGr21Fk-142" vertex="1">
          <mxGeometry y="290" width="120" height="40" as="geometry" />
        </mxCell>
        <mxCell id="t3dhQ-1YvMz3jIGr21Fk-150" value="0.09" style="text;strokeColor=default;fillColor=none;align=center;verticalAlign=middle;spacingLeft=4;spacingRight=4;overflow=hidden;points=[[0,0.5],[1,0.5]];portConstraint=eastwest;rotatable=0;whiteSpace=wrap;html=1;" parent="t3dhQ-1YvMz3jIGr21Fk-142" vertex="1">
          <mxGeometry y="330" width="120" height="40" as="geometry" />
        </mxCell>
        <mxCell id="t3dhQ-1YvMz3jIGr21Fk-190" value="&lt;b&gt;D&lt;/b&gt;" style="swimlane;fontStyle=0;childLayout=stackLayout;horizontal=1;startSize=50;horizontalStack=0;resizeParent=1;resizeParentMax=0;resizeLast=0;collapsible=1;marginBottom=0;whiteSpace=wrap;html=1;" parent="1" vertex="1">
          <mxGeometry x="500" y="470" width="120" height="370" as="geometry">
            <mxRectangle x="300" y="170" width="60" height="30" as="alternateBounds" />
          </mxGeometry>
        </mxCell>
        <mxCell id="t3dhQ-1YvMz3jIGr21Fk-191" value="&lt;font style=&quot;font-size: 15px;&quot;&gt;1.39&lt;/font&gt;" style="text;strokeColor=default;fillColor=none;align=center;verticalAlign=middle;spacingLeft=4;spacingRight=4;overflow=hidden;points=[[0,0.5],[1,0.5]];portConstraint=eastwest;rotatable=0;whiteSpace=wrap;html=1;" parent="t3dhQ-1YvMz3jIGr21Fk-190" vertex="1">
          <mxGeometry y="50" width="120" height="40" as="geometry" />
        </mxCell>
        <mxCell id="t3dhQ-1YvMz3jIGr21Fk-192" value="&lt;font style=&quot;font-size: 15px;&quot;&gt;1.63&lt;/font&gt;" style="text;strokeColor=default;fillColor=none;align=center;verticalAlign=middle;spacingLeft=4;spacingRight=4;overflow=hidden;points=[[0,0.5],[1,0.5]];portConstraint=eastwest;rotatable=0;whiteSpace=wrap;html=1;" parent="t3dhQ-1YvMz3jIGr21Fk-190" vertex="1">
          <mxGeometry y="90" width="120" height="40" as="geometry" />
        </mxCell>
        <mxCell id="t3dhQ-1YvMz3jIGr21Fk-193" value="1.49" style="text;strokeColor=default;fillColor=none;align=center;verticalAlign=middle;spacingLeft=4;spacingRight=4;overflow=hidden;points=[[0,0.5],[1,0.5]];portConstraint=eastwest;rotatable=0;whiteSpace=wrap;html=1;fontSize=15;" parent="t3dhQ-1YvMz3jIGr21Fk-190" vertex="1">
          <mxGeometry y="130" width="120" height="40" as="geometry" />
        </mxCell>
        <mxCell id="t3dhQ-1YvMz3jIGr21Fk-194" value="1.24" style="text;strokeColor=default;fillColor=none;align=center;verticalAlign=middle;spacingLeft=4;spacingRight=4;overflow=hidden;points=[[0,0.5],[1,0.5]];portConstraint=eastwest;rotatable=0;whiteSpace=wrap;html=1;fontSize=15;" parent="t3dhQ-1YvMz3jIGr21Fk-190" vertex="1">
          <mxGeometry y="170" width="120" height="40" as="geometry" />
        </mxCell>
        <mxCell id="t3dhQ-1YvMz3jIGr21Fk-195" value="1.56" style="text;strokeColor=default;fillColor=none;align=center;verticalAlign=middle;spacingLeft=4;spacingRight=4;overflow=hidden;points=[[0,0.5],[1,0.5]];portConstraint=eastwest;rotatable=0;whiteSpace=wrap;html=1;fontSize=15;" parent="t3dhQ-1YvMz3jIGr21Fk-190" vertex="1">
          <mxGeometry y="210" width="120" height="40" as="geometry" />
        </mxCell>
        <mxCell id="t3dhQ-1YvMz3jIGr21Fk-196" value="1.04" style="text;strokeColor=default;fillColor=none;align=center;verticalAlign=middle;spacingLeft=4;spacingRight=4;overflow=hidden;points=[[0,0.5],[1,0.5]];portConstraint=eastwest;rotatable=0;whiteSpace=wrap;html=1;fontSize=15;" parent="t3dhQ-1YvMz3jIGr21Fk-190" vertex="1">
          <mxGeometry y="250" width="120" height="40" as="geometry" />
        </mxCell>
        <mxCell id="t3dhQ-1YvMz3jIGr21Fk-197" value="1.39" style="text;strokeColor=default;fillColor=none;align=center;verticalAlign=middle;spacingLeft=4;spacingRight=4;overflow=hidden;points=[[0,0.5],[1,0.5]];portConstraint=eastwest;rotatable=0;whiteSpace=wrap;html=1;fontSize=15;" parent="t3dhQ-1YvMz3jIGr21Fk-190" vertex="1">
          <mxGeometry y="290" width="120" height="40" as="geometry" />
        </mxCell>
        <mxCell id="t3dhQ-1YvMz3jIGr21Fk-198" value="&lt;font style=&quot;font-size: 15px;&quot;&gt;1.00&lt;/font&gt;" style="text;strokeColor=default;fillColor=none;align=center;verticalAlign=middle;spacingLeft=4;spacingRight=4;overflow=hidden;points=[[0,0.5],[1,0.5]];portConstraint=eastwest;rotatable=0;whiteSpace=wrap;html=1;" parent="t3dhQ-1YvMz3jIGr21Fk-190" vertex="1">
          <mxGeometry y="330" width="120" height="40" as="geometry" />
        </mxCell>
        <mxCell id="t3dhQ-1YvMz3jIGr21Fk-199" value="&lt;b&gt;P&lt;/b&gt;" style="swimlane;fontStyle=0;childLayout=stackLayout;horizontal=1;startSize=50;horizontalStack=0;resizeParent=1;resizeParentMax=0;resizeLast=0;collapsible=1;marginBottom=0;whiteSpace=wrap;html=1;" parent="1" vertex="1">
          <mxGeometry x="620" y="470" width="120" height="370" as="geometry">
            <mxRectangle x="300" y="170" width="60" height="30" as="alternateBounds" />
          </mxGeometry>
        </mxCell>
        <mxCell id="t3dhQ-1YvMz3jIGr21Fk-200" value="&lt;font style=&quot;font-size: 15px;&quot;&gt;0.15&lt;/font&gt;" style="text;strokeColor=default;fillColor=none;align=center;verticalAlign=middle;spacingLeft=4;spacingRight=4;overflow=hidden;points=[[0,0.5],[1,0.5]];portConstraint=eastwest;rotatable=0;whiteSpace=wrap;html=1;" parent="t3dhQ-1YvMz3jIGr21Fk-199" vertex="1">
          <mxGeometry y="50" width="120" height="40" as="geometry" />
        </mxCell>
        <mxCell id="t3dhQ-1YvMz3jIGr21Fk-201" value="&lt;font style=&quot;font-size: 15px;&quot;&gt;0.20&lt;/font&gt;" style="text;strokeColor=default;fillColor=none;align=center;verticalAlign=middle;spacingLeft=4;spacingRight=4;overflow=hidden;points=[[0,0.5],[1,0.5]];portConstraint=eastwest;rotatable=0;whiteSpace=wrap;html=1;" parent="t3dhQ-1YvMz3jIGr21Fk-199" vertex="1">
          <mxGeometry y="90" width="120" height="40" as="geometry" />
        </mxCell>
        <mxCell id="t3dhQ-1YvMz3jIGr21Fk-202" value="0.17" style="text;strokeColor=default;fillColor=none;align=center;verticalAlign=middle;spacingLeft=4;spacingRight=4;overflow=hidden;points=[[0,0.5],[1,0.5]];portConstraint=eastwest;rotatable=0;whiteSpace=wrap;html=1;fontSize=15;" parent="t3dhQ-1YvMz3jIGr21Fk-199" vertex="1">
          <mxGeometry y="130" width="120" height="40" as="geometry" />
        </mxCell>
        <mxCell id="t3dhQ-1YvMz3jIGr21Fk-203" value="0.13" style="text;strokeColor=default;fillColor=none;align=center;verticalAlign=middle;spacingLeft=4;spacingRight=4;overflow=hidden;points=[[0,0.5],[1,0.5]];portConstraint=eastwest;rotatable=0;whiteSpace=wrap;html=1;fontSize=15;" parent="t3dhQ-1YvMz3jIGr21Fk-199" vertex="1">
          <mxGeometry y="170" width="120" height="40" as="geometry" />
        </mxCell>
        <mxCell id="t3dhQ-1YvMz3jIGr21Fk-204" value="0.19" style="text;strokeColor=default;fillColor=none;align=center;verticalAlign=middle;spacingLeft=4;spacingRight=4;overflow=hidden;points=[[0,0.5],[1,0.5]];portConstraint=eastwest;rotatable=0;whiteSpace=wrap;html=1;fontSize=15;" parent="t3dhQ-1YvMz3jIGr21Fk-199" vertex="1">
          <mxGeometry y="210" width="120" height="40" as="geometry" />
        </mxCell>
        <mxCell id="t3dhQ-1YvMz3jIGr21Fk-205" value="0.10" style="text;strokeColor=default;fillColor=none;align=center;verticalAlign=middle;spacingLeft=4;spacingRight=4;overflow=hidden;points=[[0,0.5],[1,0.5]];portConstraint=eastwest;rotatable=0;whiteSpace=wrap;html=1;fontSize=15;" parent="t3dhQ-1YvMz3jIGr21Fk-199" vertex="1">
          <mxGeometry y="250" width="120" height="40" as="geometry" />
        </mxCell>
        <mxCell id="t3dhQ-1YvMz3jIGr21Fk-206" value="100" style="text;strokeColor=default;fillColor=none;align=center;verticalAlign=middle;spacingLeft=4;spacingRight=4;overflow=hidden;points=[[0,0.5],[1,0.5]];portConstraint=eastwest;rotatable=0;whiteSpace=wrap;html=1;fontSize=15;" parent="t3dhQ-1YvMz3jIGr21Fk-199" vertex="1">
          <mxGeometry y="290" width="120" height="40" as="geometry" />
        </mxCell>
        <mxCell id="t3dhQ-1YvMz3jIGr21Fk-207" value="&lt;font style=&quot;font-size: 15px;&quot;&gt;46&lt;/font&gt;" style="text;strokeColor=default;fillColor=none;align=center;verticalAlign=middle;spacingLeft=4;spacingRight=4;overflow=hidden;points=[[0,0.5],[1,0.5]];portConstraint=eastwest;rotatable=0;whiteSpace=wrap;html=1;" parent="t3dhQ-1YvMz3jIGr21Fk-199" vertex="1">
          <mxGeometry y="330" width="120" height="40" as="geometry" />
        </mxCell>
      </root>
    </mxGraphModel>
  </diagram>
</mxfile>
